<svg width="862" height="284" viewBox="0 0 862 284" fill="none" xmlns="http://www.w3.org/2000/svg">
<path d="M293.63 79.07C253.72 79.14 223.07 109.96 223.18 149.91C223.29 189.68 254.18 220.23 294.26 220.13C334.12 220.04 364.93 189.08 364.77 149.28C364.61 109.48 333.73 78.99 293.63 79.07ZM309.37 188.92C294.43 195.57 280.3 192.92 268.03 182.22C252.14 168.34 249.52 141.68 261.94 123.82C265.354 118.816 269.895 114.682 275.197 111.75C280.498 108.819 286.414 107.172 292.467 106.941C298.521 106.711 304.545 107.903 310.054 110.423C315.563 112.943 320.405 116.72 324.19 121.45C330.42 129.09 333.66 138.77 333.65 153.03C333.06 167.45 326.06 181.48 309.37 188.92Z" fill="#DB4437"/>
<path d="M447.74 79.02C407.57 79.08 376.74 109.9 376.85 150.02C376.93 189.61 407.98 220.2 448.02 220.15C487.73 220.1 518.57 189.43 518.61 149.99C518.64 109.78 487.86 78.97 447.74 79.02ZM442.62 191.9C427.51 190.21 414.62 178.7 409.91 162.75C403.91 142.39 412.41 120.38 429.68 111.45C454.74 98.45 484.17 115.02 487.13 143.75C487.33 145.75 487.37 147.75 487.4 148.31C487.39 175.89 467.42 194.68 442.62 191.9Z" fill="#F4B400"/>
<path d="M767.11 170.87C798.26 157.97 829.43 145.06 861.17 131.93C858.73 126.33 856.84 121.34 854.46 116.59C836.54 81.01 798 68.44 764.69 87.85C742.84 100.59 733.09 120.93 731.69 145.59C728.78 198.93 779.52 235.08 828.56 214.65C841.44 209.28 851.56 200.44 859.66 188.86L835.66 172.96C815.92 202.26 776.67 195.61 767.11 170.87ZM789.81 107.64C803.91 103.64 818.48 109.22 824.39 121.34L761.86 147.34C760.31 129.52 772.51 112.54 789.81 107.64Z" fill="#DB4437"/>
<path d="M211.84 100.6H206.14C176.98 100.6 147.82 100.6 118.66 100.6C116.84 100.6 115.03 100.83 113.21 100.95H112.21C111.93 101.11 111.42 101.26 111.42 101.43C111.29 110.61 111.17 119.8 111.24 128.99C111.24 129.42 113.02 129.83 113.97 130.25C115.117 130.426 116.271 130.543 117.43 130.6C139.03 130.6 160.637 130.6 182.25 130.6C180.73 149.6 172.55 164.82 157.11 176.25C125.04 200.01 62.85 195.94 39.89 143.58C26.58 113.23 30.46 83.91 52.05 58.43C73.33 33.3 106.55 24.53 136.79 35.56C146.91 39.25 156.04 45.62 165.01 50.44L186.07 30.71C186.07 30.71 184.55 29.58 183.96 29.03C145.52 -6.59 86.49 -8.71 43.33 24.03C-8.51998 63.4 -14.88 137.8 29.92 184.97C56.3 212.74 89.14 223.66 126.92 219.46C168.82 214.8 201.46 185.94 210.66 146.08C214.181 131.163 214.583 115.68 211.84 100.6Z" fill="#4285F4"/>
<path d="M666.01 83.68H636.92C636.76 87.24 636.62 90.58 636.44 94.54L630.3 89.88L623.3 85.2C610.14 77.87 596.23 77.4 582.13 81.37C555.24 88.93 534.48 113.07 531.7 140.67C528.61 171.24 540.26 195.16 566.52 211.24C587.97 224.37 617.31 223.96 635.32 205.24C635.47 205.09 635.91 205.24 636.32 205.24C636.32 211.04 636.82 216.86 636.23 222.56C634.48 239.33 625.52 250.19 610.76 254.2C595.01 258.48 579.28 253.36 569.69 240.64C567.4 237.64 565.56 234.25 563.29 230.64L536.85 241.64C551.75 277.38 590.75 292.2 626.26 278.64L642.82 269.07C642.871 269.083 642.925 269.085 642.977 269.077C643.03 269.068 643.079 269.048 643.124 269.019C643.168 268.99 643.206 268.952 643.234 268.907C643.263 268.863 643.282 268.812 643.29 268.76L644.21 267.91L645.21 266.91L648.59 263.38L648.54 263.26C651.08 260.03 654.03 257.04 656.07 253.52C663.44 240.81 666.19 226.85 666.2 212.28C666.2 170.64 666.2 128.997 666.2 87.35C666.23 86.25 666.1 85.11 666.01 83.68ZM635.07 169.05C628.29 185.41 613.64 193.81 596.45 191.98C580.63 190.3 566.85 177.23 563.28 160.34C562.53 156.79 562.28 153.12 562.01 150.76C562.6 134.05 568.19 121.25 581.51 112.71C585.45 110.112 589.867 108.323 594.504 107.447C599.142 106.572 603.907 106.628 608.523 107.612C613.138 108.595 617.513 110.487 621.39 113.177C625.268 115.867 628.572 119.301 631.11 123.28C640.46 137.72 641.61 153.26 635.07 169.05Z" fill="#4285F4"/>
<path d="M687.13 8.48999V215.67H717.63V8.48999H687.13Z" fill="#0F9D58"/>
</svg>
